/* XPM */
static char *_2f29cfae94a4e19fdc6fcaa286f3bd25WTfRIPU1BQcBTDN[] = {
/* columns rows colors chars-per-pixel */
"30 30 110 2 ",
"   c #050400",
".  c #0B0704",
"X  c #070803",
"o  c #0B0A06",
"O  c #0E0D0A",
"+  c #100F0B",
"@  c #101006",
"#  c #13120E",
"$  c #161511",
"%  c #181713",
"&  c #1B1A15",
"*  c #1E1D19",
"=  c #201C16",
"-  c #211E1A",
";  c #24211D",
":  c #29251E",
">  c #2A281E",
",  c #262520",
"<  c #2A2621",
"1  c #2E2925",
"2  c #2D2926",
"3  c #2E2A27",
"4  c #2C2825",
"5  c #2F2C25",
"6  c #2D2A23",
"7  c #2F2B28",
"8  c #302923",
"9  c #302C21",
"0  c #302C23",
"q  c #302B25",
"w  c #312D24",
"e  c #332C24",
"r  c #312C26",
"t  c #322D27",
"y  c #342D27",
"u  c #332D25",
"i  c #322D29",
"p  c #332E28",
"a  c #312D2A",
"s  c #332E2A",
"d  c #322E2B",
"f  c #332F2C",
"g  c #333027",
"h  c #353327",
"j  c #363227",
"k  c #353128",
"l  c #353229",
"z  c #36312B",
"x  c #36332A",
"c  c #323429",
"v  c #373529",
"b  c #37342B",
"n  c #35302C",
"m  c #37372F",
"M  c #39322A",
"N  c #383429",
"B  c #38362A",
"V  c #39372B",
"C  c #38332D",
"Z  c #38352C",
"A  c #3B342C",
"S  c #39362D",
"D  c #3B372C",
"F  c #3C352F",
"G  c #3B342A",
"H  c #3A382C",
"J  c #3B382F",
"K  c #3C382D",
"L  c #3D392E",
"P  c #3C382F",
"I  c #3C3A2E",
"U  c #3C382D",
"Y  c #3B3630",
"T  c #3A3633",
"R  c #3C3930",
"E  c #3E3A31",
"W  c #3D3A33",
"Q  c #3E3C30",
"!  c #3F3D31",
"~  c #3F3C33",
"^  c #3F3B30",
"/  c #413D32",
"(  c #403D34",
")  c #413D34",
"_  c #433F34",
"`  c #423F36",
"'  c #443D35",
"]  c #423E35",
"[  c #413C38",
"{  c #434135",
"}  c #444035",
"|  c #45453D",
" . c #47433A",
".. c #49423A",
"X. c #484439",
"o. c #48463A",
"O. c #49453C",
"+. c #4C453D",
"@. c #4A463C",
"#. c #4A483C",
"$. c #484A3F",
"%. c #4C483D",
"&. c #4D493E",
"*. c #4D4B3F",
"=. c #4C4743",
"-. c #534E44",
";. c #535145",
":. c #585147",
">. c #575348",
",. c #5A5349",
/* pixels */
"% - ; - & * ; 4 f d d 7 , - , d ..' M r D ..+.' F < : < 8 u ",
"& - , , ; - - * ; ; ; ; ; - , 4 9 r 6 : : 9 R O.=.[ s 4 < , ",
"- - - - & ; d T , , , 4 4 4 4 d q r C T d - & & % - - 4 n < ",
"& # # # % * ; & * & * ; ; ; ; ; = & - r l r < , : d - : , % ",
"# # * ; * * & # $ % & * * * * * & & * & & % & & ; 4 % % & + ",
"o   o # o O # O o O + + O o O O o # # # o o     o # o O $ O ",
"> @ o o o O O   O O + O o o o o o O o o o O O o O O O O O O ",
"$.c : &   X # # # # # # # # $ $ # # $ $ $ # # # $ $ & & $ $ ",
";.h J m #   o $ + # # # # # $ $ # $ $ # # $ $ # O $ O O O $ ",
"$.J ` | , + O + $ & & $ # % & $ $ $ $ # # # # O $ % $ $ % * ",
"{ ! R R , o O O # % & & & & & & & $ $ $ $ $ $ $ & $ $ # $ $ ",
"o.$.b 5 -   + $ + $ & & & & & % * $ $ & % % & * - & & & % # ",
"` &.l : -   # $ # $ & & & % $ # & # # $ $ $ & * * & & & & $ ",
"D o.l - *   # # # % * * * & $ $ # O + # # $ & * $ # # % $ # ",
"/ &.P - - . % % $ & & * * * & & # # $ & $ $ & & $ $ $ $ $ # ",
"} &.` ; - o $ $ & & & * & & & & % & * * & $ $ # $ $ $ # # # ",
"P &.D : ,   $ + & $ & % # & & & & & ; - # # $ # $ % & $ # # ",
"> ! g ; ;   + # * & * # O + $ * - & * * # $ & # # # $ # # O ",
"9 ! ` 6 : o O $ ; ; ; * # O # , ; * * & $ & * & $ # # # # O ",
"6 V / , ; # $ & * ; 4 , ; % $ , ; ; ; * $ $ & & * & & * * & ",
"h V ! ; - + # & & ; , , : * % ; ; ; ; * & % & $ & % & * * & ",
"/ ! ! ; & O $ & * ; ; * * * & * * * & & & * & $ - & $ # O + ",
"V b l = % o & * * ; , & # - - & & & $ $ % & & & , ; & # # & ",
"P P D ; & o & * & ; 4 & # ; ; $ * ; * $ + O # & $ & & & * , ",
"V R ` : & o $ & & * * & = ; & # # ; * # $ % $ & $ O O # & & ",
"u P ` < - O $ & & $ $ & * - & & - * % $ & & # # % # # # # + ",
":.>.-.r ; O $ & & # # & - & & - & # + % * * * * & & & % $ # ",
",.-.O.- & o $ $ * # # * ; & % & * $ % * & % * & # $ & & $ $ ",
"-.O. .: 4 & * & * & & - ; - % % ; & * * $ $ * $ # $ % % % % ",
"-.o. .; 4 & & O & & * ; , ; & # & $ & & $ - , % & $ $ $ & & "
};
