/* XPM */
static char *_e2401c7c3ac4608fc7985ebd1856961GcQmSkx7Rc0iSFLJ[] = {
/* columns rows colors chars-per-pixel */
"50 50 256 2 ",
"   c black",
".  c #010101",
"X  c #020202",
"o  c gray1",
"O  c #040404",
"+  c gray2",
"@  c #060606",
"#  c #070707",
"$  c gray3",
"%  c #090909",
"&  c gray4",
"*  c #0B0B0B",
"=  c #0C0C0C",
"-  c gray5",
";  c #0E0E0E",
":  c gray6",
">  c #101010",
",  c #111111",
"<  c gray7",
"1  c #131313",
"2  c gray8",
"3  c #151515",
"4  c #161616",
"5  c gray9",
"6  c #181818",
"7  c #191919",
"8  c gray10",
"9  c #1B1B1B",
"0  c gray11",
"q  c #1D1D1D",
"w  c #1E1E1E",
"e  c gray12",
"r  c #202020",
"t  c gray13",
"y  c #222222",
"u  c #232323",
"i  c gray14",
"p  c #252525",
"a  c gray15",
"s  c #272727",
"d  c #282828",
"f  c gray16",
"g  c #2A2A2A",
"h  c gray17",
"j  c #2C2C2C",
"k  c #2D2D2D",
"l  c gray18",
"z  c #2F2F2F",
"x  c gray19",
"c  c #313131",
"v  c #323232",
"b  c gray20",
"n  c #343434",
"m  c #353535",
"M  c gray21",
"N  c #373737",
"B  c gray22",
"V  c #393939",
"C  c #3A3A3A",
"Z  c gray23",
"A  c #3C3C3C",
"S  c gray24",
"D  c #3E3E3E",
"F  c #3F3F3F",
"G  c gray25",
"H  c #414141",
"J  c gray26",
"K  c #434343",
"L  c #444444",
"P  c gray27",
"I  c #464646",
"U  c gray28",
"Y  c #484848",
"T  c #494949",
"R  c gray29",
"E  c #4B4B4B",
"W  c #4C4C4C",
"Q  c gray30",
"!  c #4E4E4E",
"~  c gray31",
"^  c #505050",
"/  c #515151",
"(  c gray32",
")  c #535353",
"_  c gray33",
"`  c #555555",
"'  c #565656",
"]  c gray34",
"[  c #585858",
"{  c gray35",
"}  c #5A5A5A",
"|  c #5B5B5B",
" . c gray36",
".. c #5D5D5D",
"X. c gray37",
"o. c #5F5F5F",
"O. c #606060",
"+. c gray38",
"@. c #626262",
"#. c gray39",
"$. c #646464",
"%. c #656565",
"&. c gray40",
"*. c #676767",
"=. c #686868",
"-. c DimGray",
";. c #6A6A6A",
":. c gray42",
">. c #6C6C6C",
",. c #6D6D6D",
"<. c gray43",
"1. c #6F6F6F",
"2. c gray44",
"3. c #717171",
"4. c #727272",
"5. c gray45",
"6. c #747474",
"7. c gray46",
"8. c #767676",
"9. c #777777",
"0. c gray47",
"q. c #797979",
"w. c gray48",
"e. c #7B7B7B",
"r. c #7C7C7C",
"t. c gray49",
"y. c #7E7E7E",
"u. c gray50",
"i. c #808080",
"p. c #818181",
"a. c gray51",
"s. c #838383",
"d. c #848484",
"f. c gray52",
"g. c #868686",
"h. c gray53",
"j. c #888888",
"k. c #898989",
"l. c gray54",
"z. c #8B8B8B",
"x. c gray55",
"c. c #8D8D8D",
"v. c #8E8E8E",
"b. c gray56",
"n. c #909090",
"m. c gray57",
"M. c #929292",
"N. c #939393",
"B. c gray58",
"V. c #959595",
"C. c gray59",
"Z. c #979797",
"A. c #989898",
"S. c gray60",
"D. c #9A9A9A",
"F. c #9B9B9B",
"G. c gray61",
"H. c #9D9D9D",
"J. c gray62",
"K. c #9F9F9F",
"L. c #A0A0A0",
"P. c gray63",
"I. c #A2A2A2",
"U. c gray64",
"Y. c #A4A4A4",
"T. c #A5A5A5",
"R. c gray65",
"E. c #A7A7A7",
"W. c gray66",
"Q. c #A9A9A9",
"!. c #AAAAAA",
"~. c gray67",
"^. c #ACACAC",
"/. c gray68",
"(. c #AEAEAE",
"). c #AFAFAF",
"_. c gray69",
"`. c #B1B1B1",
"'. c #B2B2B2",
"]. c gray70",
"[. c #B4B4B4",
"{. c gray71",
"}. c #B6B6B6",
"|. c #B7B7B7",
" X c gray72",
".X c #B9B9B9",
"XX c gray73",
"oX c #BBBBBB",
"OX c #BCBCBC",
"+X c gray74",
"@X c gray",
"#X c gray75",
"$X c #C0C0C0",
"%X c #C1C1C1",
"&X c gray76",
"*X c #C3C3C3",
"=X c gray77",
"-X c #C5C5C5",
";X c #C6C6C6",
":X c gray78",
">X c #C8C8C8",
",X c gray79",
"<X c #CACACA",
"1X c #CBCBCB",
"2X c gray80",
"3X c #CDCDCD",
"4X c #CECECE",
"5X c gray81",
"6X c #D0D0D0",
"7X c gray82",
"8X c #D2D2D2",
"9X c LightGray",
"0X c gray83",
"qX c #D5D5D5",
"wX c gray84",
"eX c #D7D7D7",
"rX c #D8D8D8",
"tX c gray85",
"yX c #DADADA",
"uX c gray86",
"iX c gainsboro",
"pX c #DDDDDD",
"aX c gray87",
"sX c #DFDFDF",
"dX c gray88",
"fX c #E1E1E1",
"gX c #E2E2E2",
"hX c gray89",
"jX c #E4E4E4",
"kX c gray90",
"lX c #E6E6E6",
"zX c #E7E7E7",
"xX c gray91",
"cX c #E9E9E9",
"vX c #EAEAEA",
"bX c gray92",
"nX c #ECECEC",
"mX c gray93",
"MX c #EEEEEE",
"NX c #EFEFEF",
"BX c gray94",
"VX c #F1F1F1",
"CX c gray95",
"ZX c #F3F3F3",
"AX c #F4F4F4",
"SX c gray96",
"DX c #F6F6F6",
"FX c gray97",
"GX c #F8F8F8",
"HX c #F9F9F9",
"JX c gray98",
"KX c #FBFBFB",
"LX c gray99",
"PX c #FDFDFD",
"IX c #FEFEFE",
"UX c white",
/* pixels */
"P A S D Z V V D S S C V K m A S A A A Z A S A C A A S D F D D F V Z A A S D S A A C H Z B F A Z F N ",
"S M M v v M b x C V B D m B C N Z Z C C Z S S A V B B V C V C Z A V N M B V C V Z B k m v b N n M k ",
"A M M b v M n b C f b z B k b l x x z l x v n n n v v v v v v n m c x v m b c x k A v v Z b b V M k ",
"Z v m N b c b A c f j k z l s k l l l k l x v v z l l l l k k l v l k v n c z z g N K z M b z v n j ",
"Z c n M v z b S m c Z N x n n m v b b v v n m m m m m M M n v b N v x v b v m C l z A b k N V v b g ",
"S n n v v m m M A y v v b g m j c b b v v b n n c x c v c z k k b c c b n b m B f A x Z N B n S N k ",
"Z v b v b m v c F b d M B n z c v b b v c b m M m n m m m b c v l z c n m b x l x K n B Z b h N M j ",
"A v M A C n v V f I M r B z h c x c x z z c n M v c x c x l l z b b b b m m c k J l A v m Z K m c f ",
"D b B b x A L j F a H Z t N M c b m M m N C Z V m N N M M m n M V B n A M d z K k V z C D b n B Z j ",
"G V x h v g c I j N v H n j s l h j j h h j j h k z l j k h g j f l k a f m U l A d G G y v f v C h ",
"V S v h A z s M L n z z F C b N V B B V V V C Z V C V N B N N V V C B B C G h V z L b f n z n l Z k ",
"S A n g m N c d n D k B c N C M M n n M N m M V N B M m N N N C B m D A A j m v S A p M m M g b A k ",
"F m n l x c N v a N D z M j v v m n n m b c c b m M b v n n n M m k n b f A x C C i m n n z j N C h ",
"C N m x m x c v B f B m l D l b v v b n v c x v v b x z c x l x B B v x F z m S e Z h c x n l N C h ",
"G S n f b b c z b u m Z m j A k c n M M m m m n m M n b m m b n z l m V h m B m l b c x m l g v Z j ",
"H M b c m c b z n j N b b c z b c M B M n n b c x c x x b b v v c N x v M z N B f M c l l m l n A k ",
"F V n k n c x l b f b n z v c v n m M m b c x x M n v v b n n b v c b b c b N B h n c c v b l m Z j ",
"F C m l m v c z n g n n l v c b v b n n n b b b v m M M b v n M n v b b c v M N j m v v b n z m A k ",
"F C n l m v c z n g n m z v c v v v b b n m m n c n N N m n m N M n n b c v M N j M v b b n l n A k ",
"S B b k n c c z v g m N c n c c b b b n m m n v b b b m N B N m N n n b c b N B h m v b b b k b Z j ",
"S N v j b c x l b g m M c n v b b n n M M m v x n b b n M N M m N n n b v n B V h m v b b b k v C h ",
"S N b k n c c z M h m m z b b m v b n M M m v c c n M m b v n M M n n n b m V V j M v b b n l n Z j ",
"S B b k n v v x M j M M x b v b b n m m n b v v c n N M n v v n M n n n b M V B k M v v b n l n Z j ",
"S N b k n v v x n j B V b n x z m m m n v c c v n n n M M m v z M n n m n m B N j m c c v b l n V g ",
"A N b k b c c x m k M V b n b c m n b v v c c v b v b m n v x x m N k N v b C N j m v b b b k n V g ",
"D V n l n c c x m l M V v v v x n b v v v v v v b c c v v x z x n M z N n b S C j m v b n b k n V g ",
"F C m l n x x z b k M B c c c c v v c c c v b b n b v v v c x c v b x n n c Z V j n c b b b k n B f ",
"D V n l n x x z v j M B x c v v c c c c c v v b n b b b b v v v b v b v b k B M h b x v b b k b B f ",
"D V n l n c v x n k M B x c v v v v c c x c c v c v b b b v c x m b m b n z N M h n x v b b k b B g ",
"S V n z m b n v M z N B x c v c b v v c x x x x c v n n n n b c n c b b v c M M k m c b n n l n V g ",
"S B n l m b b v M l m N c v b v b b v c x x x x c b n n n m m b b x c b x b n M k n x v n n k b V g ",
"Z N b k n c v c n j b M c n m n b b v c x x x x x v v c v n n b m v c m x M n M j b z c b b j c V h ",
"A B c h n c x c m f M c M z M n b x b z n c M m m m m m M M m n n l b m x m m M h n x l m x g n C h ",
"Z N c h n c x z x h M B l m z z n m c n x n v n b v v b n n n b z C z x V k n M d m z m h m j c V g ",
"C N c h n c z z m z c B c l N z x v z b z b c b x x x c v v v c v j m v z N v C v n v h n z z c V g ",
"Z N c h n c x x C a n v C k V v v x n c M v M n b b b n n n n n n b c V k x M n h V l z c n f n C h ",
"S B v h n c c c c u V V z Z j v b c m c m x b c v v v v c c c c l v n h Z k M B r b n n k n l c Z h ",
"S V v h n v c c j x F z m j C z c b x n x n v b b b b v c x x x l z l N j D k A N h c n v l m x Z j ",
"C N c h n c x z v J k C k m B m n M n V M Z V Z V C V B N N N B V b N m V f A j J N a n z m k m C h ",
"B M c j m c l k H j C h G C x N M n N b B m B N N B B N M M M N m M n N B A c B g L m i n M h M V g ",
"A m k s j s n S z C g F M r l j h h h h h h j j h h h h h j j j j p v z y B L g B j I B q v t v V j ",
"Z M Z M x n S k m h L C q A b v n n n m m m m m m m m m m m m m m M c m v g m H h C j C A m C B M k ",
"F x x C D c x M c H z p M l x c z z x x x x x x x x x c c x x z b n n z N c i B L x B c M m C m v h ",
"V m x k n n x n A S u n b z l v c c c v v v v v c c v b b b v c x N l b B n n p x F l V v M h n c g ",
"Z m C v f N B j V u N c h j B z v v v v v v v v c v b n n n n b M h m b l b l c t Z v x B g M b m j ",
"G z c N x z k V b c x m x m b m v v v v v b b b b b n m m m m m n C v m m k b N j z Z l d b x c m h ",
"C b z j l b g Z n r l a z h d f h h h h h j j j j j k k k k k k f l l s j l p h i b B s S z z l v d ",
"A c M n g N c c n b b z b x c b b b b b b b b b n n b b v v v v b b b m b x b m k m x b z z M c c d ",
"G n n n c v x z V N N N N M M N V B V C Z C C Z Z Z C V B B V C C V V B B V V C M n c x c n n v x k ",
"S x z l h j h j k j h j h g g j h g h j k j j k l l k j h h j j k j j h h j j k z l k j k z l k l j "
};
