/* XPM */
static char *_7727acb81774ac1c58e73043fa034481ll27HLC49Gozwy0[] = {
/* columns rows colors chars-per-pixel */
"50 50 183 2 ",
"   c #050100",
".  c #0B0501",
"X  c #0C0803",
"o  c #0F0E09",
"O  c #100700",
"+  c #130C03",
"@  c #1B0F03",
"#  c #120F09",
"$  c #171307",
"%  c #1A1302",
"&  c #16120B",
"*  c #19130C",
"=  c #1C190F",
"-  c #1A1711",
";  c #1D1A14",
":  c #1E1D19",
">  c #271801",
",  c #2F1A06",
"<  c #251508",
"1  c #2E1E0C",
"2  c #321F06",
"3  c #221D15",
"4  c #281F16",
"5  c #221E19",
"6  c #2A1F19",
"7  c #2B220F",
"8  c #312004",
"9  c #35260C",
"0  c #3B290A",
"q  c #242116",
"w  c #2B2316",
"e  c #25221B",
"r  c #2A251C",
"t  c #27281A",
"y  c #2B291E",
"u  c #302716",
"i  c #322A17",
"p  c #312619",
"a  c #322A1C",
"s  c #382B1A",
"d  c #33321F",
"f  c #3F321E",
"g  c #272624",
"h  c #2A2621",
"j  c #2D2B23",
"k  c #2B2728",
"l  c #2D2C29",
"z  c #302720",
"x  c #322D23",
"c  c #3A2F21",
"v  c #332E2A",
"b  c #353324",
"n  c #3A3525",
"m  c #363824",
"M  c #3A3A26",
"N  c #35332B",
"B  c #3A362A",
"V  c #373929",
"C  c #3C3B2B",
"Z  c #353532",
"A  c #393631",
"S  c #3D3C33",
"D  c #3B3939",
"F  c #43371D",
"G  c #423525",
"H  c #443A25",
"J  c #493B25",
"K  c #42362B",
"L  c #433B2C",
"P  c #4A3D2C",
"I  c #503F2B",
"U  c #423D32",
"Y  c #4C3F32",
"T  c #423D39",
"R  c #483F3A",
"E  c #3E402E",
"W  c #3F4133",
"Q  c #3F4038",
"!  c #43412E",
"~  c #49412C",
"^  c #54432F",
"/  c #434234",
"(  c #4B4334",
")  c #444A36",
"_  c #46453A",
"`  c #4A463A",
"'  c #464A3A",
"]  c #4B4B3C",
"[  c #524332",
"{  c #52473B",
"}  c #534C3B",
"|  c #5A4E3C",
" . c #4E503F",
".. c #52513F",
"X. c #4A4541",
"o. c #4D4C41",
"O. c #504740",
"+. c #524D43",
"@. c #574D4A",
"#. c #4E5140",
"$. c #535442",
"%. c #595644",
"&. c #565944",
"*. c #5A5A46",
"=. c #555449",
"-. c #5A564A",
";. c #5D5B4A",
":. c #655741",
">. c #635946",
",. c #695B41",
"<. c #635E4C",
"1. c #695E4D",
"2. c #635D51",
"3. c #5E604B",
"4. c #61604E",
"5. c #63604F",
"6. c #62614F",
"7. c #61634E",
"8. c #63624E",
"9. c #62614D",
"0. c #65604D",
"q. c #64614E",
"w. c #66614E",
"e. c #64634F",
"r. c #67624F",
"t. c #67604E",
"y. c #68614F",
"u. c #6A614D",
"i. c #636051",
"p. c #636250",
"a. c #646150",
"s. c #676151",
"d. c #656251",
"f. c #666350",
"g. c #666052",
"h. c #656253",
"j. c #666352",
"k. c #656452",
"l. c #676453",
"z. c #676155",
"x. c #666354",
"c. c #656155",
"v. c #676455",
"b. c #686252",
"n. c #686554",
"m. c #686556",
"M. c #696657",
"N. c #6D6250",
"B. c #6B6857",
"V. c #676358",
"C. c #706553",
"Z. c #847E6E",
"A. c #857F73",
"S. c #87826F",
"D. c #878473",
"F. c #878175",
"G. c #878576",
"H. c #868374",
"J. c #888370",
"K. c #888272",
"L. c #898377",
"P. c #888274",
"I. c #8B8577",
"U. c #898677",
"Y. c #8C8676",
"T. c #8A8572",
"R. c #8D8875",
"E. c #8E8976",
"W. c #8B8579",
"Q. c #8B877B",
"!. c #8D8779",
"~. c #8C867A",
"^. c #8E8878",
"/. c #8C897A",
"(. c #8E887A",
"). c #8E8B7D",
"_. c #918B78",
"`. c #918B7B",
"'. c #928B79",
"]. c #948D7B",
"[. c #958E7C",
"{. c #918C79",
"}. c #97907E",
/* pixels */
"+.2.-.2.Q.G.).D.S.R.].}.[._.R.R.^._.^.I.~.L.A.L.Q.~.Q.F.L.~.^.Y.R._.R.R._.R.J.T.J.Z.I.^.).~.V.-.-.@.",
"` +.` ` 2.%.;.<.%.*.<.<.q.q.q.q.<.b.2.<.2.<.-.<.z.z.2.;.;.2.d.d.<.u.q.<.q.<.>.<.%.%.<.p.2.=./ +.@.R ",
"R +.+./ =.$.*.<.q.q.<.<.q.q.<.<.<.b.d.<.d.2.p.x.p.z.M.x.M.M.d.<.q.q.q.q.u.q.<.<.k.B.M.;.;.;._ ` -.` ",
"U K U ( ;.} ] <.<.>.>.>.<.<.<.<.<.d.d.d.d.p.d.M.d.z.z.d.d.d.d.5.<.<.<.<.q.<.<.<.<.d.;.$.=.;.U U n U ",
"K ( { M ..5.;...%.*.>.<.q.q.d.k.q.d.q.5.<.;.5.5.<.5.5.5.5.5.<.<.<.<.<.<.<.<.<.<.<.;.;.<.z.;./ $.{ L ",
"( Y ( H $.%.%.*.*.<.q.d.d.5.5.p.d.5.5.5.;.5.5.5.;.<.5.d.q.<.;.;.<.>.;.<.;.<.<.;.;.*.;.;.;.$.S ] L { ",
"| { ( H } ..%.%.%.*.;.<.<.;.;.;.3.*.;.3.;.3.7.3.5.<.;.*.*.*.;.<.;.%.*.;.*.*.;.*.;.;.;.=.=.-._ ` Y | ",
"{ ( P H ..$.*.%.*.*.;.;.;.*.*.*.;.*.*.;.*.;.3.*.*.*.*.*.*.%.%.*.*.%.*.*.%.*.;.%.=.&.;.*.$.+.U ` Y [ ",
"[ ( ( M } ..%.%.&.&.%.*.*.*.*.*.&.&.&.*.*.&.&.*.*.*.*.*.&.&.*.*.*.%.*.*.%.*.;.%.=.=.=.&.=.+.S ` J ^ ",
"[ P P M } ....%.$.$.%.&.&.&.&.&.%.%.&.&.&.&.&.*.&.*.*.&.&.&.*.*.&.%.*.*.%.&.*.$.$.$.$.$.$.+.S / P [ ",
"Y J H n } ....$. ...$.$.%.%.&.&.$.$.$.&.&.&.%.&.%.&.&.&.%.$.&.*.$.$.&.&.$.$.&.#.$.$.+.+.+.+.S U J ^ ",
"P G G n ] ] ]  . . ...$.$.%.$.%.$.#.#.$.&.$.%.%.&.&.%.%.$.$.$.%.$.$.&.&.$.$.&.] $.#.o.o.+.o.B U G I ",
"Y G n b ] ] ]  .#.#...$.$.$.....$.#.#.$.$.$.$.$.&.$.$.$.$.$.$.$.$.$.&.$.$.$.$.] o.] ] ] o.] b B G P ",
"P G n b ] ] ] ] ]  .] ]  .]  . .#. . .#.$.$.$.$.$. .] ] $.$.$.$.$.$.#. .] ] ] ] ] ] ' ' ] _ N C G P ",
"P G n b ` ' ] ] ] ] ] ] ] ] ]  .] ] o.#.#. . .$.] ] ] ] o.+.$.#.] #.#.]  .] ' ' ] ] ' ' _ _ N U K P ",
"L K B n ` ' ' ' ' ] ] ] ' ' ] ] ] ] ] o.] ] ] ..] ] ] ] ] ] o.o.] #.#.]  .] ] ] ' ' ' ' _ _ N U K P ",
"U L L x ' / / ' ) ) ) ) ' ' ' ' ] ] ] o.] ' ] #.] ] ' ' ] ] o.o.o.] o.o.] ] ] ] ' / ' S W o.N S B P ",
"K n C b ' / / / ) ) ) ) / ' ' ' ] ` ] ] ] ' ] ] ' ' ' / ' ` ` ] ] ' ] ] ] ] ] ' ' / / ] _ S l S M J ",
"K n U b L C / / / / ( ( ( ( ( ( ` ` ` ` ] ] ] ' / / / / / / ` ` ` ' ] ] ] ` ` ` ` ' U U U U A S M H ",
"K n L b ( / / C ! ! / / / ( ( ( ( ( / / ( ' ` / / / / / / / _ ` ` ( ` ` ` ` / / / / C / / S v B B M ",
"U U B t C U U / E / / / / / / / / / / / / / / / / / W W S / _ ' / / ' ' ' ' / / / / ( / S B e N ` U ",
"g S S l C V V / S / S S S U / S S / / W W W W W W S S S S S S Q S S _ ' _ / U S W / ' V N S h Z N h ",
"l Z Z g v N v N A B A N N N N N N N N N N N N Z N N N v v N Z Z N N Z Z Z N N N N l N S D Z g D D l ",
"g Z D N l j j h j j y r r r r e e e e e e e e e r r e e e e r h h h h h e e t y e y t y h h h D Z k ",
"y B x / <.-.<.<.u.<.>.<.1.q.<.<.<.1.1.1.N.N.u.u.1.C.N.1.1.1.<.1.>.>.<.<.<.<.u.u.u.u.u.>.<.<.( v N j ",
"a n c w H H f f G H H J H H L ~ J P P P P J J J J P J H J J G G P L H H J J H H J F J H H J p z N j ",
"r b N 4 L L J P G J J G n c n M c n c G P ( ( [ P P J J P P K G a a c n n n G L L H P P J K 6 v v h ",
"e N j ; v w a w y a y w a x c x c a w w a a a a a a a a a a w w x c n b a w w u i i a w a N 6 v v h ",
"g N l e C B S C n n b m C / / S C / / ! L L ! ( C C L L C C U / / W W / / ( / L ! ! M n V N : h v h ",
"e e g ; t C C V C C m m V C C V m C C C C M V M C C L C V V C / E C C C C C C V M M M W S t e j h 5 ",
"g e l e e C V m m b b b b B C C m m m m C M M V L M M C V V M C V C C C V n M H H H M C C q j b w w ",
"z r r b y V C V C C B n C C C C C E C C C C C C ! V C L C C W C C C C L U L L L M L C C C e b h r w ",
"z v r v j e e e e e e e e r t e y t t e r t j b j j g t t t t e e e e e r r e e e e t q e j l h p a ",
"z z r r b v N j l l l l v b b x x x b b g q - * - - ; ; e j N N N N N N N N N b b j b b B N j r w a ",
"h r y r S ] o.' S / / / ' ] ] ] ] ' ] ] ] ] o.=.=.=.=.o.o.o.o.] ] ] o.o.o.o.] ] $.] ] o.o.S e r w a ",
"z z r q t C m m b m V m b b b b b b b m m V C S V C C C V V V V V V C C C V m b b b b m C t ; y w p ",
"r q r q y / V E C C C V n m b b n V C V V m m V B B B b b b n B C C C C C B B m V C V n C t - j 4 p ",
"y 4 r 3 x C V V b m m m n V n b m b b d b n B C b m m m m n V n B B B m B B n n b m b b C j - e w p ",
"h e q = x C C V M M M M C C n b C V V m m m b b b b b b b m m b b b m b b b b b b n V V C y - q w w ",
"6 r 3 3 t C M M V V V V C C C n C V m b b n n m B b b y a b m m b b b b b b x x x b B n b e = e 4 r ",
"j ; 5 ; q C d b d V d b C b y b V b b b b V m j V x y y x b x a b x b x t y x b b x B B b ; - e w r ",
"j v 5 j C b b y a b n b b V V b j b V b x x b b v b b b x x x c y x j y t v A v j b B v l _ A ; z x ",
"; D e - j v b B b b m b e r j 3 b V V V V V b b b b b v x v b b b x 3 t h r N N N S B v g l e h A 3 ",
"5 h e 5 - - e r t q e j j j v e ; q e e j g r r r r h r j v j e y t 3 v v e h e h r r 3 & ; ; ; j e ",
"; j ; 5 e - 5 ; 5 3 3 e g g e e - q e e e 5 5 e 5 e e 3 5 e e 3 = ; t r h h e 3 e 5 e 3 e h h : e e ",
"- j e ; 5 5 - - * ; ; - 3 5 ; ; = ; ; - ; 3 ; 5 5 3 - * - ; = & $ $ 3 ; ; 3 ; ; ; ; ; - e ; : g j ; ",
"& . 5 e - 5 e e r h h e e e 3 3 e e e e e h h h e e e r j y r 4 = 3 e r r e e 5 h ; e 3 - : g e o # ",
"b ` r # ; - ; e e 5 e b S C H L L L C b t q e e e e e 3 3 4 z B a K n n N U ` A A A A Z h e e Z _ b ",
"w {.$.+ y 3 ; 3 ; - ; r K %.,.,.,.:.:.| L w $ 3 ; ; ; * 4 L ( J J [ [ { { +.O.X.X.T X._ _ _ X.2.F.w ",
"+ % % 4 4 X & X # # + O @ 1 9 0 0 8 2 9 s w + # & & * & 3 a 7 > , 2 , 1 < + . . X . X   . - # $ % + "
};
